<svg width="32" height="32" viewBox="0 0 32 32" fill="none" xmlns="http://www.w3.org/2000/svg">
<path d="M1 7H31C31.552 7 32 6.552 32 6C32 5.448 31.552 5 31 5H1C0.448 5 0 5.448 0 6C0 6.552 0.448 7 1 7Z" fill="#E5E5E5"/>
<path d="M31 15H1C0.448 15 0 15.448 0 16C0 16.552 0.448 17 1 17H31C31.552 17 32 16.552 32 16C32 15.448 31.552 15 31 15Z" fill="#E5E5E5"/>
<path d="M31 25H1C0.448 25 0 25.448 0 26C0 26.552 0.448 27 1 27H31C31.552 27 32 26.552 32 26C32 25.448 31.552 25 31 25Z" fill="#E5E5E5"/>
</svg>
