<svg width="24" height="24" viewBox="0 0 24 24" fill="none" xmlns="http://www.w3.org/2000/svg">
<path d="M20 20H4C2.346 20 1 18.654 1 17V7C1 5.346 2.346 4 4 4H20C21.654 4 23 5.346 23 7V17C23 18.654 21.654 20 20 20ZM4 6C3.449 6 3 6.449 3 7V17C3 17.551 3.449 18 4 18H20C20.551 18 21 17.551 21 17V7C21 6.449 20.551 6 20 6H4Z" fill="#C4C4C4"/>
<path d="M10 15H6C5.447 15 5 14.552 5 14C5 13.448 5.447 13 6 13H10C10.553 13 11 13.448 11 14C11 14.552 10.553 15 10 15Z" fill="#C4C4C4"/>
<path d="M10 11H6C5.447 11 5 10.552 5 10C5 9.448 5.447 9 6 9H10C10.553 9 11 9.448 11 10C11 10.552 10.553 11 10 11Z" fill="#C4C4C4"/>
<path d="M16 12.5C17.1046 12.5 18 11.6046 18 10.5C18 9.39543 17.1046 8.5 16 8.5C14.8954 8.5 14 9.39543 14 10.5C14 11.6046 14.8954 12.5 16 12.5Z" fill="#C4C4C4"/>
<path d="M16 13.356C14.438 13.356 13.5 14.071 13.5 14.785C13.5 15.142 14.438 15.5 16 15.5C17.466 15.5 18.5 15.143 18.5 14.785C18.5 14.071 17.52 13.356 16 13.356Z" fill="#C4C4C4"/>
</svg>
