<svg width="25" height="25" viewBox="0 0 25 25" fill="none" xmlns="http://www.w3.org/2000/svg">
<path fill-rule="evenodd" clip-rule="evenodd" d="M12.5 4.16667C12.9596 4.16667 13.3333 3.79292 13.3333 3.33333C13.3333 2.87375 12.9596 2.5 12.5 2.5C12.0404 2.5 11.6667 2.87375 11.6667 3.33333C11.6667 3.79292 12.0404 4.16667 12.5 4.16667ZM10 3.33333C10 4.20667 10.7638 5.46 11.1671 6.00042L12.5 7.66625L13.8413 5.98958C14.2425 5.53042 15 4.19458 15 3.33333C15 1.95458 13.8787 0.833333 12.5 0.833333C11.1213 0.833333 10 1.95458 10 3.33333ZM10.5079 6.51042C10.3629 6.31667 9.16667 4.67542 9.16667 3.33333C9.16667 1.49542 10.6621 0 12.5 0C14.3379 0 15.8333 1.49542 15.8333 3.33333C15.8333 4.48125 14.9375 6.00208 14.48 6.52417L12.8254 8.59375C12.7463 8.6925 12.6267 8.75 12.5 8.75C12.3733 8.75 12.2537 8.6925 12.1746 8.59375L10.5079 6.51042ZM17.0833 22.9167C17.3133 22.9167 17.5 22.7304 17.5 22.5V16.5642L23.0312 14.9842C23.2525 14.9208 23.3804 14.69 23.3171 14.4692C23.2542 14.2475 23.0233 14.1221 22.8021 14.1825L16.9687 15.8492C16.79 15.9004 16.6667 16.0642 16.6667 16.25V22.5C16.6667 22.7304 16.8533 22.9167 17.0833 22.9167ZM15.4167 22.5C15.6467 22.5 15.8333 22.3137 15.8333 22.0833V16.25C15.8333 16.0712 15.7192 15.9121 15.5496 15.8554L9.71625 13.8892C9.49792 13.8146 9.26167 13.9321 9.18833 14.1508C9.115 14.3688 9.23208 14.6054 9.45042 14.6788L15 16.5492V22.0833C15 22.3137 15.1867 22.5 15.4167 22.5ZM6.13042 11.2675L1.96375 12.5175C1.74333 12.5837 1.61792 12.8162 1.68417 13.0363C1.73833 13.2171 1.90375 13.3333 2.08333 13.3333C2.12292 13.3333 2.16292 13.3275 2.20292 13.3158L6.36958 12.0658C6.59 11.9996 6.71542 11.7671 6.64917 11.5471C6.58292 11.3267 6.35125 11.2033 6.13042 11.2675ZM7.91667 3.33333C7.68667 3.33333 7.5 3.51958 7.5 3.75V11.25C7.5 11.4296 7.61458 11.5883 7.785 11.645L15.285 14.145C15.3279 14.1596 15.3725 14.1667 15.4167 14.1667C15.5029 14.1667 15.5883 14.14 15.66 14.0883C15.7692 14.0096 15.8333 13.8837 15.8333 13.75V7.5C15.8333 7.26958 15.6467 7.08333 15.4167 7.08333C15.1867 7.08333 15 7.26958 15 7.5V13.1717L8.33333 10.9496V3.75C8.33333 3.51958 8.14667 3.33333 7.91667 3.33333ZM24.175 3.71125C23.7654 3.37875 23.29 3.24917 22.8021 3.34917L16.9687 5.01583C16.79 5.06708 16.6667 5.23083 16.6667 5.41667V13.75C16.6667 13.8804 16.7279 14.0037 16.8325 14.0829C16.9362 14.1608 17.0721 14.1867 17.1979 14.1508L23.0312 12.4842C23.2525 12.4208 23.3804 12.19 23.3171 11.9692C23.2542 11.7475 23.0233 11.6208 22.8021 11.6825L17.5 13.1975V5.73083L23.0017 4.15792C23.2796 4.1 23.5267 4.25875 23.6488 4.35792C23.9633 4.61375 24.1667 5.02917 24.1667 5.41667V21.25C24.1667 21.7975 23.7512 22.1787 22.8021 22.5158L17.0987 24.1454L8.33333 20.9583V13.75C8.33333 13.6196 8.27208 13.4963 8.1675 13.4171C8.06333 13.3387 7.92792 13.3137 7.80208 13.3492L1.96875 15.0158C1.7475 15.0792 1.61958 15.31 1.68292 15.5308C1.74583 15.7525 1.97667 15.8779 2.19792 15.8175L7.5 14.3025V21.25C7.5 21.4254 7.60958 21.5817 7.77417 21.6412L16.9408 24.9746C16.9871 24.9912 17.035 25 17.0833 25C17.1217 25 17.1604 24.9946 17.1979 24.9842L23.0558 23.3092C23.5875 23.1208 25 22.62 25 21.25V5.41667C25 4.77917 24.6838 4.12542 24.175 3.71125ZM6.64917 21.6121C6.71208 21.8329 6.58417 22.0637 6.36292 22.1271L2.19792 23.3175C2.06208 23.3558 1.92583 23.375 1.79 23.375C1.46417 23.375 1.14542 23.265 0.863333 23.0517C0.33875 22.655 0 21.9479 0 21.25V5.41667C0 4.04667 1.4125 3.54583 1.94417 3.3575L7.80208 1.6825C8.02333 1.62167 8.25417 1.7475 8.31708 1.96917C8.38042 2.19 8.2525 2.42083 8.03125 2.48417L2.19792 4.15083C1.24875 4.48792 0.833333 4.86917 0.833333 5.41667V21.25C0.833333 21.6821 1.05208 22.15 1.36583 22.3871C1.55708 22.5317 1.76 22.575 1.97 22.5158L6.13375 21.3258C6.355 21.2642 6.58583 21.3908 6.64917 21.6121Z" fill="#CFCFCF"/>
</svg>
