<svg width="28" height="28" viewBox="0 0 28 28" fill="none" xmlns="http://www.w3.org/2000/svg">
<path d="M17.3225 18.2157C17.2408 17.313 17.2721 16.683 17.2721 15.8581C17.6809 15.6436 18.4134 14.2761 18.5372 13.1208C18.8586 13.0945 19.3654 12.7809 19.5138 11.5427C19.5939 10.878 19.2758 10.5039 19.082 10.3863C19.6051 8.8133 20.6915 3.9469 17.0728 3.44402C16.7004 2.78994 15.7467 2.45898 14.5074 2.45898C9.54916 2.55026 8.95108 6.20315 10.038 10.3863C9.84484 10.5039 9.52676 10.878 9.60628 11.5427C9.75524 12.7809 10.2615 13.0945 10.5829 13.1208C10.7061 14.2755 11.4677 15.6436 11.8776 15.8581C11.8776 16.683 11.9084 17.313 11.8267 18.2157C10.8456 20.8533 4.2258 20.113 3.92004 25.2H25.2C24.8948 20.113 18.3036 20.8533 17.3225 18.2157Z" fill="black"/>
</svg>
