<svg width="24" height="16" viewBox="0 0 24 16" fill="none" xmlns="http://www.w3.org/2000/svg">
<path d="M23.1816 3.67789L17.9614 0.387852C17.8545 0.319982 17.7178 0.316072 17.606 0.377112C17.4941 0.439122 17.4248 0.556312 17.4248 0.683752V1.9733L15.7828 1.95328C15.5707 1.94364 15.3679 1.93399 15.146 1.91422C13.877 1.83951 12.6401 1.80094 11.4678 2.17008C10.9297 2.34244 10.4267 2.5817 9.98144 2.87565C9.67871 3.06169 9.41943 3.25456 9.19482 3.45963C8.55078 4.02067 8.01269 4.74186 7.63623 5.5485C7.26269 6.37077 7.06494 7.27506 7.06494 8.16373V10.4035C7.06494 10.5832 7.20068 10.7336 7.37939 10.7516C7.3916 10.7531 7.40332 10.7536 7.41552 10.7536C7.57958 10.7536 7.72363 10.6383 7.75781 10.4743C7.82519 10.1486 7.8916 9.90493 7.9751 9.68032C8.47852 8.25405 9.58448 7.06264 11.0098 6.41177C12.0947 5.91861 13.6074 5.94839 15.065 5.98111L15.7749 5.99381C15.7759 5.99381 15.7773 5.99381 15.7783 5.99381L17.4248 5.98356V7.28336C17.4248 7.41129 17.4946 7.52897 17.6069 7.59049C17.6592 7.6193 17.7173 7.63346 17.7749 7.63346C17.8403 7.63346 17.9058 7.61491 17.9634 7.57828L18.2134 7.41861L18.2138 7.41824L20.1244 6.20395C20.1246 6.20383 20.1248 6.20389 20.125 6.20377L23.1826 4.2692C23.2837 4.20524 23.3452 4.09342 23.3452 3.9733C23.3447 3.85319 23.2832 3.74186 23.1816 3.67789Z" fill="#CFCFCF"/>
<path d="M20.2756 7.53577C20.269 7.513 20.2618 7.49164 20.251 7.47107C20.2466 7.46265 20.2463 7.45325 20.2412 7.44507C20.2341 7.4339 20.2229 7.42761 20.2149 7.41748C20.2 7.39868 20.1847 7.38184 20.1663 7.36645C20.1489 7.35198 20.1311 7.34027 20.1116 7.32958C20.0923 7.31884 20.0732 7.31005 20.0518 7.30309C20.0288 7.29558 20.0061 7.29162 19.982 7.28899C19.9692 7.28759 19.958 7.28148 19.9448 7.28148C19.9353 7.28148 19.9274 7.28618 19.918 7.28691C19.8948 7.28868 19.8727 7.29405 19.8498 7.30064C19.8267 7.30729 19.805 7.31443 19.7842 7.32542C19.7758 7.32975 19.7665 7.33006 19.7583 7.33519L17.8706 8.5222C17.8597 8.52904 17.8537 8.53984 17.8439 8.54759C17.8244 8.56285 17.8069 8.57853 17.7911 8.59758C17.7769 8.61473 17.7654 8.63237 17.7548 8.6516C17.744 8.67101 17.7351 8.69024 17.7281 8.71172C17.7206 8.73491 17.7165 8.75768 17.7139 8.78198C17.7126 8.79461 17.7065 8.80559 17.7065 8.8186V12.6892C17.7065 13.0364 17.3403 13.3298 16.9067 13.3298H4.04297C3.60938 13.3298 3.24317 13.0364 3.24317 12.6892V3.92017C3.24317 3.56128 3.60206 3.26978 4.04297 3.26978H7.59569C7.596 3.26978 7.5963 3.2696 7.5963 3.2696C7.59734 3.2696 7.59795 3.27027 7.59795 3.27027C7.61113 3.27027 7.62249 3.26319 7.63488 3.26185C7.67101 3.25764 7.7066 3.25221 7.73852 3.23786C7.75964 3.22864 7.77625 3.2129 7.79541 3.19947C7.81671 3.18421 7.83746 3.16962 7.85486 3.15009C7.86218 3.14197 7.87274 3.13862 7.8794 3.12964C7.92286 3.07202 8.02441 2.96021 8.07128 2.91968C8.71532 2.34693 9.4829 1.90991 10.29 1.65552C10.2993 1.65259 10.3838 1.63111 10.3926 1.6272C10.4042 1.62488 10.4129 1.61743 10.424 1.61408C10.4486 1.60669 10.471 1.5976 10.493 1.58527C10.5106 1.57538 10.5265 1.56488 10.5419 1.55231C10.5618 1.53626 10.5787 1.51892 10.5947 1.49897C10.6064 1.48414 10.6164 1.46943 10.6257 1.45295C10.6386 1.43018 10.6481 1.40687 10.6556 1.38136C10.6611 1.36299 10.6645 1.34504 10.6669 1.32576C10.6686 1.31142 10.6753 1.29878 10.6753 1.28395C10.6753 1.2693 10.6687 1.25685 10.6669 1.24269C10.6658 1.23347 10.6688 1.22481 10.667 1.21559C10.6652 1.20637 10.659 1.19942 10.6564 1.1905C10.6482 1.16175 10.6375 1.13569 10.6227 1.11042C10.614 1.09547 10.6051 1.08192 10.5944 1.06855C10.5776 1.04761 10.5594 1.02985 10.5384 1.01325C10.5225 1.00049 10.5067 0.989628 10.4889 0.979858C10.4696 0.969418 10.45 0.961487 10.4287 0.954767C10.4046 0.946957 10.3809 0.942198 10.3555 0.939938C10.345 0.938958 10.3359 0.933838 10.3252 0.933838H4.04297C2.17481 0.933838 0.654785 2.27368 0.654785 3.92017V12.6892C0.654785 14.3308 2.17481 15.6663 4.04297 15.6663H16.9067C18.7749 15.6663 20.2949 14.3308 20.2949 12.6892V7.63159C20.2949 7.62219 20.2903 7.61432 20.2895 7.6051C20.2878 7.58136 20.2823 7.55909 20.2756 7.53577Z" fill="#CFCFCF"/>
</svg>
