<svg width="25" height="25" viewBox="0 0 25 25" fill="none" xmlns="http://www.w3.org/2000/svg">
<path d="M21.8203 19.6696C19.8524 19.6696 18.891 17.2951 17.9599 14.9961C16.9371 12.4703 15.8794 9.85856 13.3514 9.25192C13.0719 9.18484 12.8741 8.70175 12.9095 8.17291C12.945 7.64407 13.2003 7.26995 13.4799 7.33684C16.4305 8.04483 17.7276 11.2482 18.77 13.8221C19.6848 16.0811 20.4075 17.8662 21.989 17.7319C22.2701 17.7088 22.5089 18.1206 22.5215 18.6532C22.534 19.1857 22.316 19.6367 22.0345 19.6605C21.9618 19.6666 21.8903 19.6696 21.8203 19.6696Z" fill="#565E69"/>
<path d="M22.6488 17.219C20.6809 17.219 19.7195 14.8445 18.7884 12.5455C17.7656 10.0197 16.7079 7.40796 14.1799 6.80132C13.9004 6.73424 13.7026 6.25114 13.738 5.7223C13.7735 5.19346 14.0287 4.81896 14.3084 4.88623C17.2589 5.59432 18.5561 8.79758 19.5985 11.3715C20.5133 13.6304 21.2363 15.4153 22.8175 15.2813C23.0988 15.2569 23.3374 15.67 23.35 16.2026C23.3625 16.7351 23.1445 17.1861 22.863 17.2099C22.7903 17.2159 22.7188 17.219 22.6488 17.219Z" fill="#565E69"/>
<path d="M23.4738 14.7799C21.5059 14.7799 20.5443 12.4053 19.6133 10.1063C19.5499 9.94952 19.4859 9.79171 19.4211 9.63312C19.2488 9.21133 19.2899 8.60517 19.5128 8.27922C19.7357 7.95326 20.0561 8.03077 20.2285 8.45266C20.2941 8.61337 20.359 8.77341 20.4233 8.93228C21.3381 11.1914 22.0609 12.9766 23.6423 12.8423C23.9231 12.8188 24.1622 13.231 24.1748 13.7636C24.1874 14.2962 23.9693 14.747 23.6878 14.7709C23.6152 14.7769 23.5439 14.7799 23.4738 14.7799Z" fill="#565E69"/>
<path d="M20.9632 22.1971C18.9983 22.1971 18.028 19.847 17.0897 17.5742C16.0578 15.0749 14.9908 12.4905 12.4618 11.8835C12.2882 11.8418 12.138 11.6349 12.0639 11.3352C11.9897 11.0355 12.0019 10.6847 12.0962 10.4059L15.464 0.445206C15.5702 0.131125 15.7623 -0.0394289 15.958 0.00777017C18.9085 0.715756 20.2058 3.91911 21.2481 6.49305C22.1344 8.68149 22.8344 10.4101 24.2978 10.4101C24.3531 10.4101 24.41 10.4077 24.467 10.4029C24.6572 10.3871 24.8365 10.5726 24.9317 10.8849C25.0269 11.197 25.0222 11.5836 24.9195 11.8872L21.5871 21.7436C21.4976 22.0081 21.3458 22.1737 21.18 22.1878C21.1072 22.194 21.0342 22.1971 20.9632 22.1971ZM13.3683 10.226C15.7763 11.2573 16.9408 14.0777 17.8938 16.386C18.771 18.5108 19.4675 20.198 20.8758 20.2646L23.5924 12.2299C22.086 11.7361 21.2499 9.67189 20.4381 7.66724C19.4589 5.24937 18.4479 2.75265 16.1457 2.01156L13.3683 10.226Z" fill="#565E69"/>
<path d="M8.0933 25.0003C7.99922 25.0003 7.90402 24.951 7.81886 24.848C7.58147 24.5608 7.51213 23.9639 7.66397 23.5148L12.646 8.77981C12.7978 8.33079 13.1132 8.19933 13.3507 8.48677C13.5881 8.77402 13.6575 9.37091 13.5056 9.82002L8.52361 24.5551C8.42621 24.843 8.26152 25.0003 8.0933 25.0003Z" fill="#565E69"/>
<path d="M18.9584 12.1781C18.8643 12.1781 18.7691 12.1289 18.684 12.0258C18.4466 11.7385 18.3772 11.1416 18.5291 10.6925L20.1002 6.04587C20.252 5.59695 20.5674 5.46539 20.8049 5.75293C21.0423 6.04018 21.1116 6.63707 20.9598 7.08618L19.3887 11.7328C19.2913 12.0208 19.1267 12.1781 18.9584 12.1781Z" fill="#565E69"/>
<path d="M3.17974 19.6697C3.10959 19.6697 3.03836 19.6667 2.96561 19.6605C2.68413 19.6368 2.46607 19.1857 2.47867 18.6532C2.49127 18.1205 2.73091 17.7082 3.01112 17.7319C4.59331 17.8658 5.31529 16.0811 6.23004 13.8221C7.27238 11.2482 8.56957 8.04492 11.5202 7.33684C11.7996 7.26995 12.0551 7.64407 12.0905 8.17291C12.126 8.70175 11.9281 9.18484 11.6486 9.25192C9.12059 9.85856 8.06294 12.4703 7.04009 14.9961C6.10912 17.2952 5.14739 19.6697 3.17974 19.6697Z" fill="#565E69"/>
<path d="M2.351 17.2191C2.28085 17.2191 2.20963 17.2161 2.13687 17.2099C1.85539 17.1862 1.63733 16.7351 1.64993 16.2026C1.66254 15.6699 1.90192 15.2572 2.18238 15.2813C3.76442 15.4151 4.48656 13.6305 5.40135 11.3715C6.4437 8.79758 7.74089 5.59432 10.6915 4.88623C10.9708 4.81896 11.2264 5.19346 11.2618 5.7223C11.2973 6.25114 11.0995 6.73424 10.8199 6.80132C8.29191 7.40805 7.23426 10.0197 6.2114 12.5455C5.28044 14.8445 4.31865 17.2191 2.351 17.2191Z" fill="#565E69"/>
<path d="M1.52619 14.78C1.45604 14.78 1.38492 14.7771 1.31221 14.7709C1.03068 14.7471 0.812672 14.2962 0.825223 13.7636C0.837825 13.231 1.0767 12.8182 1.35767 12.8423C2.93874 12.976 3.66185 11.1914 4.57664 8.93239C4.64098 8.77351 4.70583 8.61339 4.77149 8.45268C4.94378 8.03088 5.26424 7.95318 5.48715 8.27923C5.71011 8.60518 5.75113 9.21143 5.57883 9.63313C5.51404 9.79172 5.45011 9.94963 5.38664 10.1064C4.45572 12.4053 3.49384 14.78 1.52619 14.78Z" fill="#565E69"/>
<path d="M4.03733 22.198C4.03708 22.198 4.03692 22.198 4.03672 22.198C3.9655 22.198 3.89259 22.1949 3.81999 22.1887C3.65417 22.1746 3.50233 22.0091 3.41289 21.7445L0.080402 11.8882C-0.0222509 11.5845 -0.0269447 11.198 0.0682591 10.8859C0.163463 10.5737 0.341728 10.3884 0.532952 10.4038C0.590044 10.4087 0.646982 10.4111 0.702186 10.4111C2.16555 10.4111 2.86555 8.68248 3.75182 6.49395C4.79417 3.92001 6.09141 0.71675 9.04201 0.00866779C9.23778 -0.0382417 9.42987 0.132119 9.53604 0.446104L12.9038 10.4068C12.9981 10.6856 13.0103 11.0363 12.9361 11.336C12.862 11.6357 12.7118 11.8428 12.5382 11.8844C10.0093 12.4913 8.94227 15.0758 7.91038 17.5752C6.97217 19.8479 6.00192 22.198 4.03733 22.198ZM1.40754 12.2307L4.12417 20.2655C5.53263 20.1993 6.22891 18.512 7.1062 16.387C8.05921 14.0786 9.2237 11.2581 11.6317 10.2269L8.85426 2.01236C6.55202 2.75345 5.541 5.25008 4.56187 7.66794C3.75004 9.6726 2.91397 11.7369 1.40754 12.2307Z" fill="#565E69"/>
<path d="M16.9066 25.0001C16.7384 25.0001 16.5737 24.8428 16.4763 24.5549L11.4943 9.81982C11.3425 9.3708 11.4118 8.77391 11.6492 8.48667C11.8866 8.19951 12.202 8.33059 12.3539 8.7797L17.3359 23.5147C17.4878 23.9637 17.4184 24.5607 17.1811 24.8479C17.0959 24.9508 17.0007 25.0001 16.9066 25.0001Z" fill="#565E69"/>
<path d="M6.04175 12.1783C5.87354 12.1783 5.70885 12.0211 5.61145 11.7331L4.04043 7.08645C3.88859 6.63743 3.95793 6.04054 4.19533 5.7532C4.43268 5.46615 4.74818 5.59722 4.90007 6.04624L6.47109 10.6929C6.62292 11.1419 6.55359 11.7388 6.31619 12.0261C6.23104 12.129 6.13583 12.1783 6.04175 12.1783Z" fill="#565E69"/>
</svg>
