<svg width="26" height="26" viewBox="0 0 26 26" fill="none" xmlns="http://www.w3.org/2000/svg">
<path d="M21.125 4.875H17.0625V4.0625C17.0618 3.41625 16.8048 2.79668 16.3478 2.33971C15.8908 1.88274 15.2712 1.62571 14.625 1.625H11.375C10.7288 1.62571 10.1092 1.88274 9.65221 2.33971C9.19524 2.79668 8.93821 3.41625 8.9375 4.0625V4.875H4.875C4.22875 4.87571 3.60918 5.13274 3.15221 5.58971C2.69524 6.04668 2.43821 6.66625 2.4375 7.3125V9.75C2.4375 9.96549 2.5231 10.1722 2.67548 10.3245C2.82785 10.4769 3.03451 10.5625 3.25 10.5625H4.0625V21.9375C4.06321 22.5837 4.32024 23.2033 4.77721 23.6603C5.23418 24.1173 5.85375 24.3743 6.5 24.375H19.5C20.1462 24.3743 20.7658 24.1173 21.2228 23.6603C21.6798 23.2033 21.9368 22.5837 21.9375 21.9375V10.5625H22.75C22.9655 10.5625 23.1722 10.4769 23.3245 10.3245C23.4769 10.1722 23.5625 9.96549 23.5625 9.75V7.3125C23.5618 6.66625 23.3048 6.04668 22.8478 5.58971C22.3908 5.13274 21.7712 4.87571 21.125 4.875ZM10.5625 4.0625C10.5627 3.84708 10.6484 3.64054 10.8007 3.48821C10.953 3.33589 11.1596 3.25022 11.375 3.25H14.625C14.8404 3.25022 15.047 3.33589 15.1993 3.48821C15.3516 3.64054 15.4373 3.84708 15.4375 4.0625V4.875H10.5625V4.0625ZM20.3125 21.9375C20.3123 22.1529 20.2266 22.3595 20.0743 22.5118C19.922 22.6641 19.7154 22.7498 19.5 22.75H6.5C6.28458 22.7498 6.07804 22.6641 5.92571 22.5118C5.77339 22.3595 5.68772 22.1529 5.6875 21.9375V10.5625H20.3125V21.9375ZM21.9375 8.9375H4.0625V7.3125C4.06272 7.09708 4.14839 6.89054 4.30071 6.73821C4.45304 6.58589 4.65958 6.50022 4.875 6.5H21.125C21.3404 6.50022 21.547 6.58589 21.6993 6.73821C21.8516 6.89054 21.9373 7.09708 21.9375 7.3125V8.9375Z" fill="#FF0211"/>
<path d="M8.9375 21.125C9.15299 21.125 9.35965 21.0394 9.51202 20.887C9.6644 20.7347 9.75 20.528 9.75 20.3125V13C9.75 12.7845 9.6644 12.5778 9.51202 12.4255C9.35965 12.2731 9.15299 12.1875 8.9375 12.1875C8.72201 12.1875 8.51535 12.2731 8.36298 12.4255C8.2106 12.5778 8.125 12.7845 8.125 13V20.3125C8.125 20.528 8.2106 20.7347 8.36298 20.887C8.51535 21.0394 8.72201 21.125 8.9375 21.125Z" fill="#FF0211"/>
<path d="M13 21.125C13.2155 21.125 13.4222 21.0394 13.5745 20.887C13.7269 20.7347 13.8125 20.528 13.8125 20.3125V13C13.8125 12.7845 13.7269 12.5778 13.5745 12.4255C13.4222 12.2731 13.2155 12.1875 13 12.1875C12.7845 12.1875 12.5778 12.2731 12.4255 12.4255C12.2731 12.5778 12.1875 12.7845 12.1875 13V20.3125C12.1875 20.528 12.2731 20.7347 12.4255 20.887C12.5778 21.0394 12.7845 21.125 13 21.125Z" fill="#FF0211"/>
<path d="M17.0625 21.125C17.278 21.125 17.4847 21.0394 17.637 20.887C17.7894 20.7347 17.875 20.528 17.875 20.3125V13C17.875 12.7845 17.7894 12.5778 17.637 12.4255C17.4847 12.2731 17.278 12.1875 17.0625 12.1875C16.847 12.1875 16.6403 12.2731 16.488 12.4255C16.3356 12.5778 16.25 12.7845 16.25 13V20.3125C16.25 20.528 16.3356 20.7347 16.488 20.887C16.6403 21.0394 16.847 21.125 17.0625 21.125Z" fill="#FF0211"/>
</svg>
