<svg width="24" height="24" viewBox="0 0 24 24" fill="none" xmlns="http://www.w3.org/2000/svg">
<path d="M21.635 6.366C21.168 5.594 20.592 4.838 19.887 4.137C19.174 3.429 18.405 2.849 17.618 2.383L19 1C19 1 21 1 22 2C23 3 23 5 23 5L21.635 6.366ZM10 18H6V14L6.48 13.52C7.293 13.905 8.101 14.446 8.828 15.172C9.556 15.901 10.096 16.707 10.48 17.52L10 18ZM20.48 7.52L11.634 16.365C11.167 15.594 10.591 14.836 9.886 14.136C9.174 13.427 8.404 12.848 7.617 12.382L16.48 3.52C17.293 3.903 18.101 4.444 18.828 5.171C19.557 5.899 20.097 6.707 20.48 7.52ZM4 4V20H20V13L23 9.962V21C23 22.105 22.104 23 21 23H3C1.896 23 1 22.105 1 21V3C1 1.896 1.896 1 3 1H14.01L11.009 4H4Z" fill="black"/>
</svg>
