<svg width="25" height="25" viewBox="0 0 25 25" fill="none" xmlns="http://www.w3.org/2000/svg">
<path d="M22.9167 20.8334H2.08333C0.934375 20.8334 0 19.899 0 18.7501V6.25008C0 5.10112 0.934375 4.16675 2.08333 4.16675H22.9167C24.0656 4.16675 25 5.10112 25 6.25008V18.7501C25 19.899 24.0656 20.8334 22.9167 20.8334ZM2.08333 5.20841C1.50885 5.20841 1.04167 5.6756 1.04167 6.25008V18.7501C1.04167 19.3246 1.50885 19.7917 2.08333 19.7917H22.9167C23.4911 19.7917 23.9583 19.3246 23.9583 18.7501V6.25008C23.9583 5.6756 23.4911 5.20841 22.9167 5.20841H2.08333Z" fill="#CFCFCF"/>
<path d="M12.5 15.2038L3.36299 9.29181C3.12132 9.13504 3.05205 8.81317 3.2083 8.5715C3.36455 8.32984 3.68695 8.26108 3.92862 8.41681L12.5 13.9632L21.0713 8.41681C21.313 8.26108 21.6354 8.32984 21.7916 8.5715C21.9479 8.81317 21.8786 9.13504 21.6369 9.29181L12.5 15.2038Z" fill="#CFCFCF"/>
<path d="M3.12541 17.7085C2.95718 17.7085 2.79156 17.6272 2.69156 17.4767C2.53166 17.2371 2.59625 16.9142 2.83583 16.7543L7.52333 13.6293C7.76291 13.4694 8.08635 13.534 8.24573 13.7736C8.40562 14.0132 8.34104 14.3361 8.10145 14.496L3.41395 17.621C3.32489 17.6798 3.22437 17.7085 3.12541 17.7085Z" fill="#CFCFCF"/>
<path d="M21.8744 17.7085C21.7754 17.7085 21.6749 17.6798 21.5858 17.621L16.8983 14.496C16.6587 14.3361 16.5942 14.0132 16.7541 13.7736C16.9134 13.534 17.2364 13.4694 17.4765 13.6293L22.164 16.7543C22.4035 16.9142 22.4681 17.2371 22.3082 17.4767C22.2082 17.6272 22.0426 17.7085 21.8744 17.7085Z" fill="#CFCFCF"/>
</svg>
