<svg width="24" height="24" viewBox="0 0 24 24" fill="none" xmlns="http://www.w3.org/2000/svg">
<g clip-path="url(#clip0)">
<path d="M24 13.616V10.384L21.131 9.364C20.933 8.677 20.659 8.022 20.32 7.409L21.628 4.658L19.343 2.373L16.592 3.68C15.979 3.341 15.323 3.067 14.637 2.869L13.616 0H10.384L9.363 2.869C8.677 3.067 8.021 3.34 7.408 3.68L4.657 2.372L2.372 4.657L3.68 7.409C3.341 8.022 3.066 8.677 2.869 9.364L0 10.384V13.616L2.869 14.636C3.066 15.323 3.341 15.978 3.68 16.591L2.372 19.342L4.657 21.628L7.408 20.32C8.021 20.659 8.677 20.933 9.363 21.131L10.384 24H13.616L14.637 21.131C15.324 20.933 15.979 20.659 16.592 20.32L19.343 21.628L21.628 19.342L20.32 16.591C20.659 15.978 20.933 15.323 21.131 14.636L24 13.616ZM12 16C9.791 16 8 14.209 8 12C8 9.791 9.791 8 12 8C14.209 8 16 9.791 16 12C16 14.209 14.209 16 12 16Z" fill="#565E69"/>
</g>
<defs>
<clipPath id="clip0">
<rect width="24" height="24" fill="white"/>
</clipPath>
</defs>
</svg>
