<svg width="25" height="25" viewBox="0 0 25 25" fill="none" xmlns="http://www.w3.org/2000/svg">
<path fill-rule="evenodd" clip-rule="evenodd" d="M12.5 21.875C16.8147 21.875 20.3125 18.3772 20.3125 14.0625C20.3125 11.5065 19.0851 9.23726 17.1875 7.81193V4.17755C20.8827 5.93295 23.4375 9.69938 23.4375 14.0625C23.4375 20.1031 18.5406 25 12.5 25C6.45939 25 1.5625 20.1031 1.5625 14.0625C1.5625 9.69938 4.11727 5.93295 7.8125 4.17755V7.81193C5.91492 9.23726 4.6875 11.5065 4.6875 14.0625C4.6875 18.3772 8.18528 21.875 12.5 21.875ZM12.5 14.0625C11.631 14.0625 10.9375 13.365 10.9375 12.5046V3.12035C10.9375 2.27036 11.6371 1.5625 12.5 1.5625C13.369 1.5625 14.0625 2.25997 14.0625 3.12035V12.5046C14.0625 13.3546 13.3629 14.0625 12.5 14.0625Z" fill="#CFCFCF"/>
</svg>
