<svg width="25" height="25" viewBox="0 0 25 25" fill="none" xmlns="http://www.w3.org/2000/svg">
<path d="M1.5625 14.0625C1.5625 20.1031 6.45937 25 12.5 25C18.5406 25 23.4375 20.1031 23.4375 14.0625C23.4375 8.02187 18.5406 3.125 12.5 3.125C6.45937 3.125 1.5625 8.02187 1.5625 14.0625ZM12.5 4.6875C17.6781 4.6875 21.875 8.88438 21.875 14.0625C21.875 19.2406 17.6781 23.4375 12.5 23.4375C7.32188 23.4375 3.125 19.2406 3.125 14.0625C3.125 8.88438 7.32188 4.6875 12.5 4.6875Z" fill="#565E69"/>
<path d="M15.625 0H9.375V1.5625H15.625V0Z" fill="black"/>
<path d="M21.3227 2.24965L20.2179 3.35449L22.4276 5.56418L23.5324 4.45934L21.3227 2.24965Z" fill="black"/>
<path d="M12.5 6.25V14.0625H20.3125C20.3125 9.74844 16.8141 6.25 12.5 6.25Z" fill="black"/>
</svg>
