<svg width="25" height="25" viewBox="0 0 25 25" fill="none" xmlns="http://www.w3.org/2000/svg">
<path d="M22.6835 11.3736C22.6835 12.2151 22.0061 12.8985 21.1709 12.8985C20.3356 12.8985 19.6582 12.2157 19.6582 11.3736C19.6582 10.531 20.3356 9.84816 21.1709 9.84816C22.0063 9.84816 22.6835 10.531 22.6835 11.3736ZM21.495 7.63236H3.1332L6.14046 1.18304H6.15634C6.28969 0.849491 6.62483 0.612953 7.01835 0.612953C7.02576 0.612953 7.03317 0.614364 7.04058 0.614364V0.6126H17.5883V0.613835C17.5957 0.613835 17.6029 0.612423 17.6105 0.612423C18.0041 0.612423 18.3397 0.849491 18.4731 1.18251H18.4884L21.495 7.63236ZM3.60046 9.84816C4.43584 9.84816 5.113 10.531 5.113 11.3736C5.113 12.2151 4.43584 12.8985 3.60046 12.8985C2.76561 12.8985 2.08792 12.2157 2.08792 11.3736C2.08792 10.531 2.76525 9.84816 3.60046 9.84816ZM24.7488 13.4028H24.7501V9.34457H24.7488C24.749 9.33628 24.7501 9.32799 24.7501 9.31935C24.7501 8.47109 24.0694 7.78353 23.225 7.77083V7.76906H22.6032L19.2776 0.637647H19.2606C19.1135 0.269699 18.7467 0.00723196 18.3143 0.000352779V0H6.43627V0.000705557C6.00447 0.0081139 5.63793 0.270052 5.491 0.638H5.47318L2.14754 7.76942H1.55011C0.693915 7.76942 0 8.46316 0 9.3197C0 9.32835 0.00123472 9.33664 0.00123472 9.34493H0V13.4031H0.00123472C0.00123472 13.4112 0 13.4195 0 13.4278C0 14.2842 0.694445 14.9781 1.55011 14.9781C1.64201 14.9781 1.73179 14.9684 1.81946 14.9525H2.02901V17.3779C2.02142 17.4385 2.01701 17.4992 2.01701 17.5611C2.01701 18.4027 2.72592 19.086 3.60063 19.086C4.47517 19.086 5.18443 18.4032 5.18443 17.5611C5.18443 17.4987 5.17949 17.4385 5.17191 17.3779V14.9525H19.5713V17.3779C19.5637 17.4385 19.5593 17.4992 19.5593 17.5611C19.5593 18.4027 20.2685 19.0862 21.1431 19.0862C22.0174 19.0862 22.7267 18.4034 22.7267 17.5611C22.7267 17.4987 22.7221 17.4385 22.7147 17.3779V14.9525H22.9306C23.0181 14.9684 23.1081 14.9783 23.1999 14.9783C24.0561 14.9783 24.7499 14.2842 24.7499 13.428C24.7499 13.4193 24.749 13.4111 24.7488 13.4028Z" fill="#565E69"/>
</svg>
