<svg width="24" height="24" viewBox="0 0 24 24" fill="none" xmlns="http://www.w3.org/2000/svg">
<g clip-path="url(#clip0)">
<path d="M21.75 0.75H2.25C1.42157 0.75 0.75 1.42157 0.75 2.25V21.75C0.75 22.5784 1.42157 23.25 2.25 23.25H21.75C22.5784 23.25 23.25 22.5784 23.25 21.75V2.25C23.25 1.42157 22.5784 0.75 21.75 0.75Z" stroke="#E5E5E5" stroke-width="2" stroke-linejoin="round"/>
<path d="M5.25 12.75C5.66421 12.75 6 12.4142 6 12C6 11.5858 5.66421 11.25 5.25 11.25C4.83579 11.25 4.5 11.5858 4.5 12C4.5 12.4142 4.83579 12.75 5.25 12.75Z" stroke="#E5E5E5" stroke-width="2" stroke-linejoin="round"/>
<path d="M5.25 7.5C5.66421 7.5 6 7.16421 6 6.75C6 6.33579 5.66421 6 5.25 6C4.83579 6 4.5 6.33579 4.5 6.75C4.5 7.16421 4.83579 7.5 5.25 7.5Z" stroke="#E5E5E5" stroke-width="2" stroke-linejoin="round"/>
<path d="M5.25 18C5.66421 18 6 17.6642 6 17.25C6 16.8358 5.66421 16.5 5.25 16.5C4.83579 16.5 4.5 16.8358 4.5 17.25C4.5 17.6642 4.83579 18 5.25 18Z" stroke="#E5E5E5" stroke-width="2" stroke-linejoin="round"/>
<path d="M8.25 6.75H20.25" stroke="#E5E5E5" stroke-width="2" stroke-linejoin="round"/>
<path d="M8.25 12H20.25" stroke="#E5E5E5" stroke-width="2" stroke-linejoin="round"/>
<path d="M8.25 17.25H20.25" stroke="#E5E5E5" stroke-width="2" stroke-linejoin="round"/>
</g>
<defs>
<clipPath id="clip0">
<rect width="24" height="24" fill="white"/>
</clipPath>
</defs>
</svg>
