<svg width="24" height="24" viewBox="0 0 24 24" fill="none" xmlns="http://www.w3.org/2000/svg">
<g clip-path="url(#clip0)">
<path fill-rule="evenodd" clip-rule="evenodd" d="M20.002 24.0008H4.01399C2.90999 24.0008 2.01599 23.1048 2.01599 21.9998V11.9938C2.01599 10.8888 2.91099 9.99182 4.01399 9.99182H5.01299V6.99082C5.01299 3.12282 8.14499 -0.0131836 12.008 -0.0131836C15.871 -0.0131836 19.003 3.12282 19.003 6.99082V9.99182H20.002C21.106 9.99182 22 10.8878 22 11.9938V21.9998C22 23.1038 21.105 24.0008 20.002 24.0008ZM16.005 6.99082C16.005 4.78082 14.215 2.98882 12.008 2.98882C9.80099 2.98882 8.01099 4.78082 8.01099 6.99082V9.99182H16.005V6.99082Z" fill="#CFCFCF"/>
</g>
<defs>
<clipPath id="clip0">
<rect width="24" height="24" fill="white"/>
</clipPath>
</defs>
</svg>
