<svg width="25" height="25" viewBox="0 0 25 25" fill="none" xmlns="http://www.w3.org/2000/svg">
<path d="M17.0508 16.3477C16.5039 16.1572 15.6104 16.0986 15.2197 15.9473C14.9463 15.8398 14.5117 15.7275 14.375 15.5566C14.2334 15.3906 14.2334 14.1846 14.2334 14.1846C14.2334 14.1846 14.5752 13.8672 14.7168 13.5107C14.8584 13.1543 14.9512 12.1875 14.9512 12.1875C14.9512 12.1875 14.9805 12.1973 15.0244 12.1973C15.127 12.1973 15.3125 12.1289 15.4004 11.6797C15.5078 11.1279 15.7129 10.8398 15.6592 10.4346C15.6201 10.1611 15.5029 10.1172 15.4346 10.1172C15.4004 10.1172 15.376 10.127 15.376 10.127C15.376 10.127 15.6543 9.7168 15.6543 8.32031C15.6543 6.88477 14.5459 5.46875 12.5 5.46387C10.4492 5.46875 9.3457 6.88477 9.3457 8.32031C9.3457 9.71191 9.62402 10.127 9.62402 10.127C9.62402 10.127 9.59961 10.1172 9.56543 10.1172C9.49219 10.1172 9.375 10.1611 9.34082 10.4346C9.28711 10.8398 9.4873 11.1328 9.59961 11.6797C9.6875 12.1289 9.87305 12.1973 9.97559 12.1973C10.0195 12.1973 10.0488 12.1875 10.0488 12.1875C10.0488 12.1875 10.1416 13.1592 10.2832 13.5107C10.4248 13.8672 10.7666 14.1846 10.7666 14.1846C10.7666 14.1846 10.7666 15.3906 10.625 15.5566C10.4834 15.7227 10.0537 15.8398 9.78027 15.9473C9.38965 16.0986 8.49609 16.1572 7.94922 16.3477C7.40234 16.5381 5.71289 17.334 5.71289 19.5313H19.2871C19.2871 17.334 17.6025 16.5381 17.0508 16.3477Z" fill="#E5E5E5"/>
<path d="M7.03613 15.7227C7.47559 15.5029 7.90527 15.5029 8.2373 15.459C8.2373 15.459 8.42285 15.1563 7.8125 15.0488C7.8125 15.0488 6.97754 14.8389 6.87988 14.7217C6.78223 14.6045 6.84082 13.9551 6.84082 13.9551C6.84082 13.9551 8.00781 13.916 8.47168 13.5059C7.71484 12.373 8.12012 11.0498 7.96387 9.81445C7.8125 8.58398 7.0752 7.8125 5.66406 7.8125C5.65918 7.8125 5.66406 7.8125 5.61523 7.8125C4.24805 7.8125 3.54492 8.58398 3.38867 9.81934C3.23242 11.0547 3.68164 12.5244 2.90527 13.5156C3.33984 13.9014 4.41406 13.9209 4.53613 13.9209C4.5459 13.9209 4.5459 13.9209 4.5459 13.9209L4.55078 13.916C4.55078 13.916 4.59961 14.6094 4.50195 14.7266C4.4043 14.8438 4.11621 14.9512 3.9209 14.9951C3.49121 15.0879 3.03711 15.2393 2.66113 15.3711C2.28516 15.498 1.5625 16.2598 1.5625 17.1875H5.47852C5.58594 16.7969 6.32324 16.084 7.03613 15.7227Z" fill="#E5E5E5"/>
<path d="M19.5215 17.1875H23.4375C23.4375 16.2598 22.7148 15.498 22.3389 15.3662C21.9629 15.2344 21.5039 15.083 21.0791 14.9902C20.8789 14.9463 20.5957 14.8389 20.498 14.7217C20.4004 14.6045 20.4492 13.9111 20.4492 13.9111L20.4541 13.916C20.4541 13.916 20.459 13.916 20.4639 13.916C20.5859 13.916 21.665 13.9014 22.0996 13.5107C21.3232 12.5195 21.7676 11.0498 21.6113 9.81445C21.4551 8.58398 20.752 7.8125 19.3848 7.8125C19.3359 7.8125 19.3359 7.8125 19.3359 7.8125C17.9248 7.8125 17.1826 8.58398 17.0312 9.81934C16.875 11.0547 17.2803 12.3779 16.5234 13.5107C16.9873 13.9209 18.1543 13.96 18.1543 13.96C18.1543 13.96 18.2129 14.6094 18.1152 14.7266C18.0176 14.8438 17.1826 15.0537 17.1826 15.0537C16.5723 15.1611 16.7578 15.4639 16.7578 15.4639C17.0898 15.5078 17.5244 15.5078 17.959 15.7275C18.6768 16.084 19.4141 16.7969 19.5215 17.1875Z" fill="#E5E5E5"/>
</svg>
