<svg width="25" height="25" viewBox="0 0 25 25" fill="none" xmlns="http://www.w3.org/2000/svg">
<path fill-rule="evenodd" clip-rule="evenodd" d="M0 9.22917C0 7.69583 1.4375 6.1625 2.875 6.1625H4.3125V9.22917V10.7625H18.6875V9.22917V6.1625H20.125C21.5625 6.1625 23 7.69583 23 9.22917V16.8958C23 18.4292 21.5625 19.9625 20.125 19.9625H18.6875V16.8958V15.3625H4.3125V16.8958V19.9625H2.875C1.4375 19.9625 0 18.4292 0 16.8958V9.22917ZM5.75 19.9625V16.8958H17.25V19.9625V24.5625H5.75V19.9625ZM17.25 6.1625V9.22917H5.75V6.1625V1.5625H17.25V6.1625ZM7.1875 18.4292V19.9625H15.8125V18.4292H7.1875ZM7.1875 21.4958V23.0292H15.8125V21.4958H7.1875Z" fill="black"/>
</svg>
