<svg width="25" height="25" viewBox="0 0 25 25" fill="none" xmlns="http://www.w3.org/2000/svg">
<path d="M5.07812 14.8438H20.7031C20.8743 14.844 21.0409 14.7878 21.1771 14.6841C21.3133 14.5804 21.4117 14.4347 21.457 14.2696L23.8008 5.67587C23.8327 5.55987 23.8373 5.43807 23.8144 5.31997C23.7915 5.20187 23.7416 5.09065 23.6686 4.995C23.5956 4.89935 23.5016 4.82184 23.3937 4.76852C23.2859 4.7152 23.1672 4.6875 23.0469 4.68759H4.98047L4.6875 2.98837C4.65505 2.80566 4.55861 2.64046 4.41546 2.52236C4.27232 2.40427 4.0918 2.34098 3.90625 2.34384H1.95312C1.74592 2.34384 1.54721 2.42615 1.4007 2.57267C1.25418 2.71918 1.17188 2.91789 1.17188 3.12509C1.17188 3.33229 1.25418 3.53101 1.4007 3.67752C1.54721 3.82403 1.74592 3.90634 1.95312 3.90634H3.25391L4.92578 13.2813C4.20058 13.3015 3.51311 13.609 3.0146 14.1361C2.51609 14.6632 2.24738 15.3667 2.26758 16.0919C2.28778 16.8171 2.59524 17.5046 3.12232 18.0031C3.6494 18.5016 4.35292 18.7703 5.07812 18.7501H5.73438C5.5359 19.1669 5.44617 19.6272 5.47357 20.088C5.50096 20.5488 5.64459 20.9952 5.89105 21.3855C6.13751 21.7759 6.47879 22.0975 6.88307 22.3203C7.28736 22.5432 7.74148 22.6601 8.20312 22.6601C8.66477 22.6601 9.11889 22.5432 9.52318 22.3203C9.92746 22.0975 10.2687 21.7759 10.5152 21.3855C10.7617 20.9952 10.9053 20.5488 10.9327 20.088C10.9601 19.6272 10.8704 19.1669 10.6719 18.7501H14.7188C14.5203 19.1669 14.4305 19.6272 14.4579 20.088C14.4853 20.5488 14.629 20.9952 14.8754 21.3855C15.1219 21.7759 15.4632 22.0975 15.8674 22.3203C16.2717 22.5432 16.7259 22.6601 17.1875 22.6601C17.6491 22.6601 18.1033 22.5432 18.5076 22.3203C18.9118 22.0975 19.2531 21.7759 19.4996 21.3855C19.746 20.9952 19.8897 20.5488 19.9171 20.088C19.9445 19.6272 19.8547 19.1669 19.6562 18.7501H21.875C22.0822 18.7501 22.2809 18.6678 22.4274 18.5213C22.5739 18.3748 22.6562 18.176 22.6562 17.9688C22.6562 17.7616 22.5739 17.5629 22.4274 17.4164C22.2809 17.2699 22.0822 17.1876 21.875 17.1876H5.07812C4.76732 17.1876 4.46925 17.0641 4.24948 16.8444C4.02971 16.6246 3.90625 16.3265 3.90625 16.0157C3.90625 15.7049 4.02971 15.4068 4.24948 15.1871C4.46925 14.9673 4.76732 14.8438 5.07812 14.8438ZM22.0234 6.25009L20.1055 13.2813H6.51172L5.25781 6.25009H22.0234ZM9.375 19.922C9.375 20.1537 9.30627 20.3803 9.1775 20.573C9.04874 20.7657 8.86571 20.9159 8.65158 21.0046C8.43745 21.0933 8.20182 21.1165 7.9745 21.0713C7.74718 21.0261 7.53837 20.9145 7.37448 20.7506C7.21059 20.5867 7.09898 20.3779 7.05377 20.1506C7.00855 19.9233 7.03176 19.6876 7.12045 19.4735C7.20915 19.2594 7.35935 19.0764 7.55207 18.9476C7.74478 18.8188 7.97135 18.7501 8.20312 18.7501C8.51393 18.7501 8.812 18.8736 9.03177 19.0933C9.25154 19.3131 9.375 19.6112 9.375 19.922ZM18.3594 19.922C18.3594 20.1537 18.2906 20.3803 18.1619 20.573C18.0331 20.7657 17.8501 20.9159 17.636 21.0046C17.4218 21.0933 17.1862 21.1165 16.9589 21.0713C16.7316 21.0261 16.5227 20.9145 16.3589 20.7506C16.195 20.5867 16.0834 20.3779 16.0381 20.1506C15.9929 19.9233 16.0161 19.6876 16.1048 19.4735C16.1935 19.2594 16.3437 19.0764 16.5364 18.9476C16.7292 18.8188 16.9557 18.7501 17.1875 18.7501C17.4983 18.7501 17.7964 18.8736 18.0161 19.0933C18.2359 19.3131 18.3594 19.6112 18.3594 19.922Z" fill="#E5E5E5"/>
</svg>
