<svg width="25" height="25" viewBox="0 0 25 25" fill="none" xmlns="http://www.w3.org/2000/svg">
<path d="M19.5 7C20.3284 7 21 6.32843 21 5.5C21 4.67157 20.3284 4 19.5 4C18.6716 4 18 4.67157 18 5.5C18 6.32843 18.6716 7 19.5 7Z" stroke="#CFCFCF" stroke-width="2" stroke-miterlimit="10" stroke-linecap="round"/>
<path d="M23.4999 2.75C23.4999 2.0595 22.9404 1.5 22.2499 1.5C22.1719 1.5 14.8119 1.501 14.8119 1.501C14.1469 1.501 13.5104 1.466 13.1414 1.835L1.77688 13.199C1.40738 13.568 1.40738 14.167 1.77688 14.536L10.4639 23.223C10.8329 23.592 11.4319 23.592 11.8009 23.223L23.1649 11.8585C23.5339 11.49 23.4989 10.8685 23.4989 10.1885C23.4989 10.1885 23.4999 2.828 23.4999 2.75Z" stroke="#CFCFCF" stroke-width="2" stroke-miterlimit="10" stroke-linecap="round"/>
<path d="M9.55451 13.7221C9.55751 14.1521 9.69601 14.5596 9.96951 14.9426L12.148 12.7641C11.929 12.4026 11.7565 12.0741 11.6305 11.7781C11.5035 11.4811 11.4305 11.2051 11.408 10.9471C11.3865 10.6896 11.4275 10.4431 11.532 10.2076C11.636 9.97157 11.8085 9.73307 12.0495 9.49157C12.296 9.24507 12.566 9.06307 12.859 8.94507C13.152 8.82707 13.4495 8.76807 13.751 8.76807C14.0525 8.76807 14.3495 8.82657 14.643 8.94507C14.936 9.06257 15.2085 9.23157 15.461 9.45057L16.0035 8.90807L16.4555 9.36057L15.9045 9.91157C16.2935 10.4101 16.4825 10.9276 16.472 11.4646C16.461 12.0016 16.269 12.5666 15.8965 13.1581L15.198 12.4596C15.6305 11.8071 15.642 11.1826 15.231 10.5856L13.2085 12.6081L13.57 13.2321C13.6525 13.3696 13.733 13.5466 13.813 13.7631C13.892 13.9791 13.94 14.2161 13.9565 14.4741C13.973 14.7311 13.939 14.9986 13.854 15.2756C13.769 15.5526 13.6 15.8166 13.348 16.0686C13.0795 16.3371 12.796 16.5306 12.497 16.6481C12.1985 16.7661 11.894 16.8211 11.585 16.8126C11.275 16.8041 10.967 16.7346 10.6595 16.6031C10.353 16.4711 10.057 16.2851 9.77201 16.0446L9.09801 16.7186L8.64551 16.2666L9.31951 15.5921C8.82651 14.9891 8.58101 14.3631 8.58401 13.7136C8.58651 13.0641 8.85401 12.4296 9.38551 11.8101L10.084 12.5086C9.72901 12.8876 9.55201 13.2921 9.55451 13.7221ZM10.9275 15.7366C11.1005 15.8216 11.276 15.8696 11.458 15.8801C11.6385 15.8911 11.8195 15.8581 12.0005 15.7816C12.181 15.7051 12.3595 15.5791 12.535 15.4036C12.693 15.2446 12.799 15.0841 12.8515 14.9221C12.9035 14.7606 12.921 14.5951 12.9045 14.4251C12.888 14.2551 12.8395 14.0786 12.7605 13.8946C12.6815 13.7106 12.589 13.5236 12.485 13.3321L10.422 15.3951C10.586 15.5371 10.755 15.6516 10.9275 15.7366ZM13.85 9.72257C13.505 9.70057 13.1755 9.84557 12.8635 10.1581C12.721 10.3006 12.6225 10.4461 12.5675 10.5941C12.5125 10.7416 12.4935 10.8926 12.5095 11.0456C12.526 11.1996 12.567 11.3581 12.633 11.5226C12.699 11.6871 12.781 11.8571 12.8795 12.0321L14.8035 10.1086C14.5125 9.87307 14.1955 9.74407 13.85 9.72257Z" fill="#CFCFCF"/>
</svg>
