<svg width="26" height="25" viewBox="0 0 26 25" fill="none" xmlns="http://www.w3.org/2000/svg">
<path d="M16.1134 16.2638C16.0377 15.4578 16.0668 14.8953 16.0668 14.1588C16.4453 13.9673 17.1235 12.7463 17.2381 11.7148C17.5357 11.6913 18.005 11.4113 18.1424 10.3058C18.2165 9.71231 17.922 9.37831 17.7426 9.27331C18.2269 7.86881 19.2328 3.52381 15.8822 3.07481C15.5374 2.49081 14.6543 2.19531 13.5068 2.19531C8.91588 2.27681 8.3621 5.53831 9.36855 9.27331C9.18966 9.37831 8.89514 9.71231 8.96877 10.3058C9.1067 11.4113 9.57544 11.6913 9.87307 11.7148C9.98714 12.7458 10.6923 13.9673 11.0719 14.1588C11.0719 14.8953 11.1004 15.4578 11.0247 16.2638C10.1163 18.6188 3.98685 17.9578 3.70374 22.4998H23.4074C23.1248 17.9578 17.0219 18.6188 16.1134 16.2638Z" fill="#CFCFCF"/>
</svg>
