<svg width="25" height="25" viewBox="0 0 25 25" fill="none" xmlns="http://www.w3.org/2000/svg">
<g clip-path="url(#clip0)">
<path d="M19.5312 25H0.78125C0.57405 25 0.375336 24.9177 0.228823 24.7712C0.08231 24.6247 0 24.4259 0 24.2187V8.59375C0 8.17935 0.16462 7.78192 0.457646 7.4889C0.750671 7.19587 1.1481 7.03125 1.5625 7.03125H21.875C22.2894 7.03125 22.6868 7.19587 22.9799 7.4889C23.2729 7.78192 23.4375 8.17935 23.4375 8.59375V21.0937C23.4381 21.1966 23.4184 21.2985 23.3795 21.3937C23.3406 21.4889 23.2833 21.5754 23.2109 21.6484L20.0859 24.7734C20.0129 24.8458 19.9264 24.9031 19.8312 24.942C19.736 24.9809 19.6341 25.0006 19.5312 25ZM1.5625 23.4375H19.2109L21.875 20.7734V8.59375H1.5625V23.4375Z" fill="#565E69"/>
<path d="M12.5 5.46875H10.9375V7.8125H12.5V5.46875Z" fill="#565E69"/>
<path d="M5.46875 5.46875H3.90625V7.8125H5.46875V5.46875Z" fill="#565E69"/>
<path d="M19.5312 5.46875H17.9688V7.8125H19.5312V5.46875Z" fill="#565E69"/>
<path d="M22.6562 13.2812H0.78125C0.57405 13.2812 0.375336 13.1989 0.228823 13.0524C0.08231 12.9059 0 12.7072 0 12.5C0 12.2928 0.08231 12.0941 0.228823 11.9476C0.375336 11.8011 0.57405 11.7188 0.78125 11.7188H22.6562C22.8635 11.7188 23.0622 11.8011 23.2087 11.9476C23.3552 12.0941 23.4375 12.2928 23.4375 12.5C23.4375 12.7072 23.3552 12.9059 23.2087 13.0524C23.0622 13.1989 22.8635 13.2812 22.6562 13.2812Z" fill="#565E69"/>
<path d="M9.37504 21.0938C9.16784 21.0938 8.96912 21.0115 8.82261 20.865C8.6761 20.7185 8.59379 20.5198 8.59379 20.3126V16.8907L8.1641 17.1016C7.982 17.1775 7.77795 17.1816 7.59292 17.1132C7.40789 17.0448 7.25558 16.909 7.16657 16.7329C7.07756 16.5569 7.05844 16.3537 7.11305 16.1642C7.16766 15.9746 7.29195 15.8127 7.46097 15.711L9.02347 14.9298C9.1424 14.8698 9.27468 14.8413 9.40774 14.8469C9.5408 14.8524 9.67022 14.8919 9.78372 14.9616C9.89722 15.0313 9.99103 15.1288 10.0562 15.2449C10.1214 15.361 10.1559 15.4919 10.1563 15.6251V20.3126C10.1563 20.5198 10.074 20.7185 9.92746 20.865C9.78095 21.0115 9.58224 21.0938 9.37504 21.0938Z" fill="#565E69"/>
<path d="M14.8438 21.0938H13.2812C12.8668 21.0938 12.4694 20.9291 12.1764 20.6361C11.8834 20.3431 11.7187 19.9457 11.7188 19.5312V16.4062C11.7187 15.9918 11.8834 15.5944 12.1764 15.3014C12.4694 15.0084 12.8668 14.8437 13.2812 14.8438H14.8438C15.2582 14.8437 15.6556 15.0084 15.9486 15.3014C16.2416 15.5944 16.4062 15.9918 16.4062 16.4062V19.5312C16.4062 19.9457 16.2416 20.3431 15.9486 20.6361C15.6556 20.9291 15.2582 21.0938 14.8438 21.0938ZM13.2812 16.4062V19.5312H14.8438V16.4062H13.2812Z" fill="#565E69"/>
<path d="M22.6562 21.0938L19.5312 24.2188V21.0938H22.6562Z" fill="#565E69"/>
<path d="M19.5313 25C19.4288 25.0026 19.3271 24.9812 19.2344 24.9375C19.0917 24.8789 18.9696 24.7794 18.8834 24.6515C18.7972 24.5235 18.7508 24.373 18.75 24.2187V21.0937C18.75 20.8865 18.8323 20.6878 18.9788 20.5413C19.1253 20.3948 19.324 20.3125 19.5313 20.3125H22.6563C22.8105 20.3133 22.961 20.3597 23.089 20.4459C23.2169 20.5321 23.3164 20.6542 23.375 20.7969C23.4348 20.9391 23.4512 21.096 23.422 21.2475C23.3928 21.3991 23.3193 21.5386 23.2109 21.6484L20.0859 24.7734C20.0129 24.8458 19.9264 24.9031 19.8312 24.942C19.736 24.9809 19.6341 25.0006 19.5313 25ZM20.3125 21.875V22.3359L20.7734 21.875H20.3125Z" fill="#565E69"/>
</g>
<defs>
<clipPath id="clip0">
<rect width="25" height="25" fill="white"/>
</clipPath>
</defs>
</svg>
